<!DOCTYPE svg PUBLIC "-//W3C//DTD SVG 1.1//EN" "http://www.w3.org/Graphics/SVG/1.1/DTD/svg11.dtd" [<!ENTITY ns_flows "http://ns.adobe.com/Flows/1.0/">]>
<svg xmlns="http://www.w3.org/2000/svg" width="24" height="24" viewBox="0 0 24 24" preserveAspectRatio="xMinYMid meet" overflow="visible"><path d="M 23.799999,14 C 24,13.4 24,12.6 24,12 24,11.400001 24,10.6 23.799999,10 L 20.6,9.3999997 c -0.2,-0.5999985 -0.4,-1.2 -0.8,-1.7999992 L 21.599999,4.9999999 C 20.999999,3.9999999 20,3 19,2.2000001 L 16.2,3.9999999 C 15.8,3.7999999 15.199999,3.6 14.6,3.4 L 14,0.1999999 C 13.399999,0 12.6,0 11.999999,0 11.399998,0 10.599998,0 10,0.2 L 9.4,3.4 7.6,3.9999999 4.9999999,2.2000001 C 4,3 3,3.9999999 2.2,4.9999999 L 4,7.6000005 3.3999999,9.3999997 0.2,10 C 0,10.6 0,11.400001 0,12 c 0,0.6 0,1.4 0.2,2 l 3.1999999,0.600001 C 3.5999999,15.2 3.8,15.8 4,16.200001 l -1.8,2.8 C 3,20 4,21.000001 4.9999999,21.8 L 7.6,20 c 0.6,0.2 1.200001,0.600001 1.8,0.800001 L 10.000001,23.8 C 10.599999,24 11.399999,24 11.999999,24 12.6,24 13.399999,24 14,23.8 l 0.6,-3.199999 c 0.6,-0.2 1.2,-0.400001 1.799999,-0.8 l 2.6,1.799998 C 19.999999,20.8 20.999998,19.800001 21.8,18.8 l -2.000001,-2.599999 c 0.2,-0.600002 0.6,-1.2 0.8,-1.8 z m -11.8,1.000001 C 10.4,15.000001 9,13.600001 9,12 9,10.4 10.4,9.0000007 11.999999,9.0000007 13.6,9.0000007 15,10.4 15,12 c 0,1.600001 -1.4,3.000001 -3.000001,3.000001 z" fill="#fff" /></svg>
